<mxfile host="app.diagrams.net" modified="2021-07-16T02:02:58.581Z" agent="5.0 (Windows NT 10.0; Win64; x64) AppleWebKit/537.36 (KHTML, like Gecko) Chrome/91.0.4472.124 Safari/537.36" etag="yalWplwXnt9TIF4z7dzj" version="14.8.6" type="github">
  <diagram id="C5RBs43oDa-KdzZeNtuy" name="Page-1">
    <mxGraphModel dx="1422" dy="762" grid="1" gridSize="10" guides="1" tooltips="1" connect="1" arrows="1" fold="1" page="1" pageScale="1" pageWidth="827" pageHeight="1169" math="0" shadow="1">
      <root>
        <mxCell id="WIyWlLk6GJQsqaUBKTNV-0" />
        <mxCell id="WIyWlLk6GJQsqaUBKTNV-1" parent="WIyWlLk6GJQsqaUBKTNV-0" />
        <mxCell id="cFz9O4TfO6LGveSpda0y-6" style="edgeStyle=orthogonalEdgeStyle;rounded=0;orthogonalLoop=1;jettySize=auto;html=1;exitX=0.25;exitY=1;exitDx=0;exitDy=0;entryX=0.25;entryY=0;entryDx=0;entryDy=0;fontColor=#000000;" edge="1" parent="WIyWlLk6GJQsqaUBKTNV-1" source="cFz9O4TfO6LGveSpda0y-0" target="cFz9O4TfO6LGveSpda0y-1">
          <mxGeometry relative="1" as="geometry" />
        </mxCell>
        <mxCell id="cFz9O4TfO6LGveSpda0y-18" style="edgeStyle=orthogonalEdgeStyle;rounded=0;orthogonalLoop=1;jettySize=auto;html=1;exitX=0.75;exitY=0;exitDx=0;exitDy=0;entryX=0.567;entryY=1;entryDx=0;entryDy=0;entryPerimeter=0;fontColor=#000000;" edge="1" parent="WIyWlLk6GJQsqaUBKTNV-1" source="cFz9O4TfO6LGveSpda0y-0" target="cFz9O4TfO6LGveSpda0y-15">
          <mxGeometry relative="1" as="geometry" />
        </mxCell>
        <mxCell id="cFz9O4TfO6LGveSpda0y-0" value="&lt;pre style=&quot;font-family: &amp;quot;courier new&amp;quot;, monospace; font-size: 12pt;&quot;&gt;&lt;div style=&quot;font-family: consolas, &amp;quot;courier new&amp;quot;, monospace; line-height: 22px;&quot;&gt;&lt;span style=&quot;&quot;&gt;RetryAndFollowUpInterceptor&lt;/span&gt;&lt;/div&gt;&lt;/pre&gt;" style="rounded=0;html=1;labelBackgroundColor=#ffffff;" vertex="1" parent="WIyWlLk6GJQsqaUBKTNV-1">
          <mxGeometry x="160" y="130" width="380" height="60" as="geometry" />
        </mxCell>
        <mxCell id="cFz9O4TfO6LGveSpda0y-7" style="edgeStyle=orthogonalEdgeStyle;rounded=0;orthogonalLoop=1;jettySize=auto;html=1;exitX=0.25;exitY=1;exitDx=0;exitDy=0;entryX=0.25;entryY=0;entryDx=0;entryDy=0;fontColor=#000000;" edge="1" parent="WIyWlLk6GJQsqaUBKTNV-1" source="cFz9O4TfO6LGveSpda0y-1" target="cFz9O4TfO6LGveSpda0y-4">
          <mxGeometry relative="1" as="geometry" />
        </mxCell>
        <mxCell id="cFz9O4TfO6LGveSpda0y-13" style="edgeStyle=orthogonalEdgeStyle;rounded=0;orthogonalLoop=1;jettySize=auto;html=1;exitX=0.75;exitY=0;exitDx=0;exitDy=0;entryX=0.75;entryY=1;entryDx=0;entryDy=0;fontColor=#000000;" edge="1" parent="WIyWlLk6GJQsqaUBKTNV-1" source="cFz9O4TfO6LGveSpda0y-1" target="cFz9O4TfO6LGveSpda0y-0">
          <mxGeometry relative="1" as="geometry" />
        </mxCell>
        <mxCell id="cFz9O4TfO6LGveSpda0y-1" value="&lt;pre style=&quot;font-family: &amp;quot;courier new&amp;quot; , monospace ; font-size: 12pt&quot;&gt;&lt;div style=&quot;font-family: &amp;quot;consolas&amp;quot; , &amp;quot;courier new&amp;quot; , monospace ; line-height: 22px&quot;&gt;&lt;div style=&quot;font-family: consolas, &amp;quot;courier new&amp;quot;, monospace; line-height: 22px;&quot;&gt;&lt;span style=&quot;&quot;&gt;BridgeInterceptor&lt;/span&gt;&lt;/div&gt;&lt;/div&gt;&lt;/pre&gt;" style="rounded=0;whiteSpace=wrap;html=1;labelBackgroundColor=none;" vertex="1" parent="WIyWlLk6GJQsqaUBKTNV-1">
          <mxGeometry x="160" y="220" width="380" height="60" as="geometry" />
        </mxCell>
        <mxCell id="cFz9O4TfO6LGveSpda0y-10" style="edgeStyle=orthogonalEdgeStyle;rounded=0;orthogonalLoop=1;jettySize=auto;html=1;exitX=0.75;exitY=0;exitDx=0;exitDy=0;entryX=0.75;entryY=1;entryDx=0;entryDy=0;fontColor=#000000;" edge="1" parent="WIyWlLk6GJQsqaUBKTNV-1" source="cFz9O4TfO6LGveSpda0y-2" target="cFz9O4TfO6LGveSpda0y-3">
          <mxGeometry relative="1" as="geometry" />
        </mxCell>
        <mxCell id="cFz9O4TfO6LGveSpda0y-2" value="&lt;pre style=&quot;font-family: &amp;quot;courier new&amp;quot; , monospace ; font-size: 12pt&quot;&gt;&lt;div style=&quot;font-family: &amp;quot;consolas&amp;quot; , &amp;quot;courier new&amp;quot; , monospace ; line-height: 22px&quot;&gt;&lt;div style=&quot;font-family: consolas, &amp;quot;courier new&amp;quot;, monospace; line-height: 22px;&quot;&gt;&lt;span style=&quot;&quot;&gt;CallServerInterceptor&lt;/span&gt;&lt;/div&gt;&lt;/div&gt;&lt;/pre&gt;" style="rounded=0;whiteSpace=wrap;html=1;labelBackgroundColor=#ffffff;" vertex="1" parent="WIyWlLk6GJQsqaUBKTNV-1">
          <mxGeometry x="160" y="490" width="380" height="60" as="geometry" />
        </mxCell>
        <mxCell id="cFz9O4TfO6LGveSpda0y-9" style="edgeStyle=orthogonalEdgeStyle;rounded=0;orthogonalLoop=1;jettySize=auto;html=1;exitX=0.25;exitY=1;exitDx=0;exitDy=0;entryX=0.25;entryY=0;entryDx=0;entryDy=0;fontColor=#000000;" edge="1" parent="WIyWlLk6GJQsqaUBKTNV-1" source="cFz9O4TfO6LGveSpda0y-3" target="cFz9O4TfO6LGveSpda0y-2">
          <mxGeometry relative="1" as="geometry" />
        </mxCell>
        <mxCell id="cFz9O4TfO6LGveSpda0y-11" style="edgeStyle=orthogonalEdgeStyle;rounded=0;orthogonalLoop=1;jettySize=auto;html=1;exitX=0.75;exitY=0;exitDx=0;exitDy=0;fontColor=#000000;entryX=0.75;entryY=1;entryDx=0;entryDy=0;" edge="1" parent="WIyWlLk6GJQsqaUBKTNV-1" source="cFz9O4TfO6LGveSpda0y-3" target="cFz9O4TfO6LGveSpda0y-4">
          <mxGeometry relative="1" as="geometry">
            <mxPoint x="445" y="380" as="targetPoint" />
          </mxGeometry>
        </mxCell>
        <mxCell id="cFz9O4TfO6LGveSpda0y-3" value="&lt;pre style=&quot;font-family: &amp;quot;courier new&amp;quot; , monospace ; font-size: 12pt&quot;&gt;&lt;div style=&quot;font-family: &amp;quot;consolas&amp;quot; , &amp;quot;courier new&amp;quot; , monospace ; line-height: 22px&quot;&gt;&lt;div style=&quot;font-family: consolas, &amp;quot;courier new&amp;quot;, monospace; line-height: 22px;&quot;&gt;&lt;span style=&quot;&quot;&gt;ConnectInterceptor&lt;/span&gt;&lt;/div&gt;&lt;/div&gt;&lt;/pre&gt;" style="rounded=0;whiteSpace=wrap;html=1;labelBackgroundColor=none;" vertex="1" parent="WIyWlLk6GJQsqaUBKTNV-1">
          <mxGeometry x="160" y="400" width="380" height="60" as="geometry" />
        </mxCell>
        <mxCell id="cFz9O4TfO6LGveSpda0y-8" style="edgeStyle=orthogonalEdgeStyle;rounded=0;orthogonalLoop=1;jettySize=auto;html=1;exitX=0.25;exitY=1;exitDx=0;exitDy=0;entryX=0.25;entryY=0;entryDx=0;entryDy=0;fontColor=#000000;" edge="1" parent="WIyWlLk6GJQsqaUBKTNV-1" source="cFz9O4TfO6LGveSpda0y-4" target="cFz9O4TfO6LGveSpda0y-3">
          <mxGeometry relative="1" as="geometry" />
        </mxCell>
        <mxCell id="cFz9O4TfO6LGveSpda0y-12" style="edgeStyle=orthogonalEdgeStyle;rounded=0;orthogonalLoop=1;jettySize=auto;html=1;exitX=0.75;exitY=0;exitDx=0;exitDy=0;entryX=0.75;entryY=1;entryDx=0;entryDy=0;fontColor=#000000;" edge="1" parent="WIyWlLk6GJQsqaUBKTNV-1" source="cFz9O4TfO6LGveSpda0y-4" target="cFz9O4TfO6LGveSpda0y-1">
          <mxGeometry relative="1" as="geometry" />
        </mxCell>
        <mxCell id="cFz9O4TfO6LGveSpda0y-4" value="&lt;pre style=&quot;font-family: &amp;quot;courier new&amp;quot; , monospace ; font-size: 12pt&quot;&gt;&lt;div style=&quot;font-family: &amp;quot;consolas&amp;quot; , &amp;quot;courier new&amp;quot; , monospace ; line-height: 22px&quot;&gt;&lt;div style=&quot;font-family: consolas, &amp;quot;courier new&amp;quot;, monospace; line-height: 22px;&quot;&gt;&lt;span style=&quot;&quot;&gt;CacheInterceptor&lt;/span&gt;&lt;/div&gt;&lt;/div&gt;&lt;/pre&gt;" style="rounded=0;whiteSpace=wrap;html=1;labelBackgroundColor=none;" vertex="1" parent="WIyWlLk6GJQsqaUBKTNV-1">
          <mxGeometry x="160" y="310" width="380" height="60" as="geometry" />
        </mxCell>
        <mxCell id="cFz9O4TfO6LGveSpda0y-19" style="edgeStyle=orthogonalEdgeStyle;rounded=0;orthogonalLoop=1;jettySize=auto;html=1;exitX=0.5;exitY=1;exitDx=0;exitDy=0;entryX=0.25;entryY=0;entryDx=0;entryDy=0;fontColor=#000000;" edge="1" parent="WIyWlLk6GJQsqaUBKTNV-1" source="cFz9O4TfO6LGveSpda0y-14" target="cFz9O4TfO6LGveSpda0y-0">
          <mxGeometry relative="1" as="geometry" />
        </mxCell>
        <mxCell id="cFz9O4TfO6LGveSpda0y-14" value="Request" style="rounded=0;whiteSpace=wrap;html=1;labelBackgroundColor=#ffffff;fontColor=#000000;" vertex="1" parent="WIyWlLk6GJQsqaUBKTNV-1">
          <mxGeometry x="160" y="30" width="120" height="60" as="geometry" />
        </mxCell>
        <mxCell id="cFz9O4TfO6LGveSpda0y-15" value="Response" style="rounded=0;whiteSpace=wrap;html=1;labelBackgroundColor=#ffffff;fontColor=#000000;" vertex="1" parent="WIyWlLk6GJQsqaUBKTNV-1">
          <mxGeometry x="420" y="30" width="120" height="60" as="geometry" />
        </mxCell>
      </root>
    </mxGraphModel>
  </diagram>
</mxfile>
